<svg version="1.1" id="Layer_1" xmlns="http://www.w3.org/2000/svg" xmlns:xlink="http://www.w3.org/1999/xlink" x="0px" y="0px"
	 width="100%" viewBox="0 0 1024 1024" enable-background="new 0 0 1024 1024" xml:space="preserve">
<path fill="#000000" opacity="1.000000" stroke="none" 
	d="
M492.172729,748.158875 
	C482.645050,746.857056 473.578766,745.602234 464.519287,744.300049 
	C463.208710,744.111633 461.896057,743.796082 460.645325,743.363281 
	C458.295807,742.550049 456.341583,741.303589 456.894714,738.333435 
	C457.419952,735.513123 459.422852,734.455750 462.027313,734.718994 
	C465.827545,735.103027 469.604034,735.729370 473.386566,736.280273 
	C545.794006,746.826050 610.316589,729.989014 665.110046,680.417664 
	C703.641235,645.558838 727.337830,602.144348 736.135803,551.046753 
	C741.410217,520.413208 740.146973,489.738800 732.639099,459.360504 
	C721.378967,413.800018 698.379517,375.412231 663.068726,344.579926 
	C625.572632,311.839478 582.207947,292.457062 532.327209,288.132202 
	C511.600983,286.335144 491.092102,287.385559 470.677216,291.163361 
	C469.533051,291.375061 468.350800,291.380280 467.206238,291.590393 
	C464.311920,292.121735 461.628082,291.891296 460.872284,288.513306 
	C460.080353,284.973785 462.460083,283.122925 465.453766,282.524323 
	C470.669952,281.481323 475.953979,280.724518 481.238068,280.082306 
	C541.410828,272.769226 596.794800,285.389954 646.826294,320.063110 
	C695.552795,353.831818 727.793030,399.310028 741.538696,457.000793 
	C757.578308,524.318970 746.784241,587.563782 707.854309,644.973633 
	C670.724609,699.728638 618.866760,732.926819 553.813354,745.244080 
	C533.587097,749.073730 513.167053,750.081726 492.172729,748.158875 
z"/>
<path fill="#000000" opacity="1.000000" stroke="none" 
	d="
M511.762634,404.000000 
	C511.744537,390.335388 511.648865,377.170044 511.780853,364.006927 
	C511.804260,361.673065 510.232819,357.598694 514.091309,357.555298 
	C517.408142,357.518005 517.006042,361.449402 517.016174,364.025177 
	C517.125427,391.687256 517.184509,419.349518 517.226868,447.011810 
	C517.254395,465.008972 517.203918,483.006287 517.246094,501.003387 
	C517.261841,507.749268 522.487793,510.682983 528.271973,507.085205 
	C561.373047,486.496246 594.421326,465.822205 627.506775,445.208160 
	C646.311218,433.491882 665.151306,421.832794 683.981201,410.157440 
	C684.828674,409.631927 685.701355,409.121002 686.619141,408.740387 
	C688.735474,407.862671 690.954285,407.440247 692.476746,409.642487 
	C694.180603,412.107117 692.758667,414.113373 690.919189,415.730927 
	C689.553101,416.932159 687.985962,417.924347 686.436401,418.894623 
	C635.184143,450.986511 583.925415,483.067902 532.656372,515.132935 
	C530.482056,516.492798 529.009827,517.782593 528.801270,520.870117 
	C528.219604,529.478638 521.644958,535.339722 513.715515,535.057739 
	C505.980621,534.782654 501.040710,529.293335 500.851288,520.224792 
	C500.789307,517.257935 499.337860,515.794495 497.226410,514.222778 
	C465.422668,490.548767 433.660675,466.818695 401.895905,443.092377 
	C399.889709,441.593842 397.564697,440.121643 398.541992,437.064667 
	C399.598236,433.760712 401.916199,433.230743 404.855194,434.713074 
	C410.103516,437.360229 414.527222,441.216644 419.204193,444.677856 
	C446.387360,464.795044 473.508545,484.996033 500.632629,505.192963 
	C503.284302,507.167450 505.830780,508.664093 509.308441,506.940521 
	C512.814636,505.202789 511.728149,502.115814 511.733643,499.485687 
	C511.799805,467.823914 511.768494,436.161926 511.762634,404.000000 
z"/>
<path fill="#000000" opacity="1.000000" stroke="none" 
	d="
M301.114075,593.992798 
	C307.880157,611.740784 316.908020,627.789185 328.128784,642.620911 
	C329.631989,644.607910 331.093079,646.646729 332.356323,648.789612 
	C333.646790,650.978699 333.874481,653.283691 331.575897,655.049438 
	C329.198883,656.875488 327.082092,655.697144 325.347595,653.993530 
	C321.037506,649.760193 317.992279,644.547791 314.678497,639.567383 
	C294.075653,608.602417 282.427155,574.510925 278.520752,537.557068 
	C273.443573,489.528229 283.041901,444.574585 305.763092,402.202698 
	C306.951080,399.987244 308.080872,397.702667 311.087952,397.517944 
	C314.970795,397.279449 317.042175,400.837463 315.055969,404.926056 
	C312.368011,410.459198 309.107391,415.719666 306.522736,421.296539 
	C290.366699,456.156342 283.919403,492.730621 286.829437,531.082825 
	C288.468475,552.684387 293.513306,573.401672 301.114075,593.992798 
z"/>
<path fill="#000000" opacity="1.000000" stroke="none" 
	d="
M434.992554,736.144287 
	C431.854431,731.355164 432.627289,727.792786 436.653534,727.032654 
	C439.105591,726.569580 441.285248,727.255493 442.713226,729.404480 
	C443.888824,731.173706 444.144714,733.140442 442.782501,734.941956 
	C440.765991,737.608826 438.183563,737.827942 434.992554,736.144287 
z"/>
</svg>